<?xml version="1.0" encoding="UTF-8"?>
<svg width="91px" height="68px" viewBox="0 0 91 68" version="1.1" xmlns="http://www.w3.org/2000/svg" xmlns:xlink="http://www.w3.org/1999/xlink">
    <!-- Generator: Sketch 39.1 (31720) - http://www.bohemiancoding.com/sketch -->
    <title>noun_Switch Camera_78816</title>
    <desc>Created with Sketch.</desc>
    <defs></defs>
    <g id="Page-1" stroke="none" stroke-width="1" fill="none" fill-rule="evenodd">
        <g id="noun_Switch-Camera_78816" fill="#FFFFFF">
            <g id="Group">
                <path d="M55.535,3.332 C57.146,3.332 58.651,4.14 59.546,5.479 L63.914,12.435 C64.81,13.777 66.313,14.581 67.928,14.581 L82.222,14.581 C84.886,14.581 87.044,16.741 87.044,19.403 L87.044,59.581 C87.044,62.245 84.886,64.403 82.222,64.403 L8.294,64.403 C5.632,64.403 3.472,62.245 3.472,59.581 L3.472,19.404 C3.472,16.742 5.632,14.582 8.294,14.582 L22.588,14.582 C24.2,14.582 25.705,13.777 26.6,12.436 L30.97,5.48 C31.865,4.14 33.367,3.333 34.981,3.333 L55.535,3.333 M55.535,0.118 L34.98,0.118 C32.288,0.118 29.789,1.457 28.294,3.696 L23.925,10.652 C23.626,11.099 23.126,11.368 22.587,11.368 L8.294,11.368 C3.863,11.368 0.258,14.973 0.258,19.404 L0.258,59.582 C0.258,64.015 3.863,67.618 8.294,67.618 L82.222,67.618 C86.655,67.618 90.258,64.014 90.258,59.582 L90.258,19.404 C90.258,14.973 86.654,11.368 82.222,11.368 L67.928,11.368 C67.389,11.368 66.889,11.099 66.59,10.652 L62.221,3.696 C60.727,1.457 58.228,0.118 55.535,0.118" id="Shape" opacity="0.7"></path>
                <path d="M66.109,35.476 C65.684,24.756 56.884,16.19 46.061,16.19 C40.803,16.19 36.032,18.227 32.451,21.534 L35.866,24.948 C38.572,22.51 42.14,21.011 46.061,21.011 C54.209,21.011 60.866,27.432 61.288,35.476 L55.704,35.476 L63.74,45.52 L71.775,35.476 L66.109,35.476 L66.109,35.476 Z" id="Shape"></path>
                <path d="M46.062,51.547 C38.051,51.547 31.496,45.338 30.875,37.485 L36.419,37.485 L28.383,27.44 L20.347,37.485 L26.049,37.485 C26.675,48.013 35.375,56.369 46.062,56.369 C51.32,56.369 56.09,54.334 59.672,51.026 L56.257,47.611 C53.551,50.05 49.982,51.547 46.062,51.547" id="Shape"></path>
            </g>
        </g>
    </g>
</svg>
